<svg xmlns="http://www.w3.org/2000/svg" xmlns:xlink="http://www.w3.org/1999/xlink" width="24.076" height="24.076"><defs><linearGradient id="linear-gradient" x1=".045" y1=".71" x2=".972" y2=".318" gradientUnits="objectBoundingBox"><stop offset="0" stop-color="#2e82c4"/><stop offset="1" stop-color="#1b4d96"/></linearGradient><linearGradient id="linear-gradient-2" x1=".28" y1=".653" x2=".534" y2="1" xlink:href="#linear-gradient"/></defs><g id="Group_110" data-name="Group 110" transform="translate(-4.682 -4.682)"><path id="Subtraction_4" data-name="Subtraction 4" d="M12.038 24.076a12.038 12.038 0 01-8.512-20.55A12.038 12.038 0 1120.55 20.55a11.959 11.959 0 01-8.512 3.526zm1.436-18.763A1.661 1.661 0 0012.3 5.8l-5.079 5.012a1.673 1.673 0 000 2.379l5.079 5.016a1.672 1.672 0 002.35-2.379L10.775 12l3.875-3.825a1.672 1.672 0 00-1.175-2.862z" transform="translate(4.682 4.682)" fill="url(#linear-gradient)"/><path id="Subtraction_1" data-name="Subtraction 1" d="M7.022 5.238L3.2 1.365A1.671 1.671 0 00.831 1.35a1.682 1.682 0 00-.242 2.078l-.01-.012A2.007 2.007 0 012.006 0a1.992 1.992 0 011.428.6l3.588 3.63L10.611.6a2.006 2.006 0 112.855 2.82l-.009.009a1.684 1.684 0 00-.243-2.076 1.672 1.672 0 00-2.365.015l-3.827 3.87z" transform="rotate(90 5.517 15.178)" fill="url(#linear-gradient-2)"/></g></svg>